<?xml version="1.0" encoding="utf-8"?>
<!-- Generator: Adobe Illustrator 25.2.1, SVG Export Plug-In . SVG Version: 6.00 Build 0)  -->
<svg version="1.1" id="Layer_1" xmlns="http://www.w3.org/2000/svg" xmlns:xlink="http://www.w3.org/1999/xlink" x="0px" y="0px"
	 viewBox="0 0 1052.5 1052.5" style="enable-background:new 0 0 1052.5 1052.5;" xml:space="preserve">
<style type="text/css">
	.st0{stroke:#000000;stroke-width:20;stroke-miterlimit:10;}
	.st1{clip-path:url(#SVGID_2_);}
	.st2{fill:#90B94D;stroke:#000000;stroke-width:5;stroke-miterlimit:10;}
	.st3{fill:none;stroke:#000000;stroke-width:5;stroke-miterlimit:10;}
</style>
<g>
	<path class="st0" d="M936.5,1042.5H116c-58.4,0-106-47.5-106-106V116C10,57.6,57.5,10,116,10h820.5c58.4,0,106,47.5,106,106v820.5
		C1042.5,995,995,1042.5,936.5,1042.5z M116,24.1c-50.7,0-91.9,41.2-91.9,91.9v820.5c0,50.7,41.2,91.9,91.9,91.9h820.5
		c50.7,0,91.9-41.2,91.9-91.9V116c0-50.7-41.2-91.9-91.9-91.9H116z"/>
</g>
<g>
	<path d="M837.2,858.6H215.4c-11.8,0-21.4-9.6-21.4-21.4V215.4c0-11.8,9.6-21.4,21.4-21.4h621.8c11.8,0,21.4,9.6,21.4,21.4v621.8
		C858.6,849,849,858.6,837.2,858.6z M215.4,200.9c-7.9,0-14.4,6.5-14.4,14.4v621.8c0,7.9,6.5,14.4,14.4,14.4h621.8
		c7.9,0,14.4-6.5,14.4-14.4V215.4c0-7.9-6.5-14.4-14.4-14.4H215.4V200.9z"/>
</g>
<g>
	<g>
		<defs>
			<rect id="SVGID_1_" x="524.3" y="868" width="330.4" height="91.6"/>
		</defs>
		<clipPath id="SVGID_2_">
			<use xlink:href="#SVGID_1_"  style="overflow:visible;"/>
		</clipPath>
		<g class="st1">
		</g>
	</g>
</g>
<g id="_x23_90b94dff_1_">
	<path class="st2" d="M770.18,554.8c4.02,1.66,8.6,3.33,12.94,1.9c3.14-0.97,5.32-3.74,6.56-6.7c1.9-4.44,2.64-9.25,3.56-13.96
		c0.69-3.14,0.65-6.43,1.11-9.57c0.18-4.16,0.18-8.32,0-12.44c-0.32-2.22-0.46-4.48-0.65-6.7c-2.13-15.02-7.58-29.59-15.99-42.21
		c-2.68-3.84-5.69-7.44-8.64-11.09c-3.61-3.79-7.21-7.63-11.42-10.77c-5.36-4.62-11.42-8.37-17.61-11.74
		c-4.81-2.77-10.12-4.62-15.35-6.47c-10.86-3.61-22.33-5.32-33.75-4.99c-16.32,0.65-32.5,5.09-46.74,13.04
		c-7.21,3.88-14.01,8.55-20.02,14.1c-4.9,4.44-9.11,9.62-13.22,14.79c-4.16,6.01-7.95,12.3-10.72,19.05
		c-3.84,9.29-6.43,19.18-7.03,29.26c-1.16,18.12,1.02,36.94,9.25,53.3c3.65,7.72,8.41,14.84,13.91,21.31
		c2.5,3.14,5.36,5.96,8.37,8.64c5.45,4.39,10.68,9.11,16.78,12.62c4.16,2.45,8.23,5.13,12.67,7.07c3.33,1.39,6.52,3,9.94,4.16
		c7.67,2.54,15.62,4.3,23.62,5.27c2.87,0.46,5.78,0.28,8.64,0.55c2.82,0.28,5.59-0.18,8.41-0.18c2.87,0,5.73-0.51,8.55-0.97
		c4.35-0.74,8.64-1.71,12.81-3.1c5.22-1.85,10.45-3.79,15.12-6.8c5.59-3.61,10.77-7.9,15.21-12.85c2.68-2.54,4.72-5.64,6.89-8.6
		c2.17-3,3.98-6.29,5.69-9.57c0.51,3.74,1.57,7.35,2.45,11.05c1.48,5.73,2.77,11.51,4.16,17.29c-1.25,1.25-2.63,2.36-3.98,3.51
		c-1.9,1.85-3.84,3.61-6.01,5.09c-3.65,2.5-7.12,5.32-10.96,7.54c-7.12,4.02-14.52,7.54-22.33,10.12c-4.21,1.48-8.6,2.36-12.94,3.47
		c-5.64,1.16-11.33,1.99-17.06,2.4c-5.41,0.18-10.82,0.14-16.23,0.05c-8.92-0.6-17.71-2.22-26.3-4.62
		c-8.18-2.17-15.95-5.64-23.44-9.52c-6.15-3.24-11.7-7.44-17.29-11.56c-11.19-9.15-20.8-20.2-28.38-32.5
		c-10.63-17.57-17.2-37.68-18.35-58.25c-0.14-7.81-0.18-15.67,1.16-23.39c2.13-14.84,7.4-29.17,14.98-42.11
		c4.16-7.54,9.57-14.38,15.35-20.76c3.19-3.14,6.24-6.43,9.57-9.38c3.98-3.28,8.14-6.38,12.25-9.48c3.88-2.82,8.14-5.04,12.3-7.49
		c15.02-7.86,31.62-12.85,48.54-13.87c19.42-1.34,39.15,2.36,56.63,11c3.84,2.08,7.63,4.25,11.46,6.33
		c6.93,4.21,13.5,9.01,19.55,14.38c4.58,4.58,9.38,8.88,13.36,13.96c2.27,2.4,4.21,5.04,6.1,7.72c1.9,3.24,4.25,6.1,5.96,9.48
		c8.97,15.86,14.1,33.93,14.65,52.14c-0.05,5.55,0.28,11.09-0.42,16.6c-0.65,8.6-2.36,17.1-4.81,25.38
		c-1.2,4.58-2.31,9.66-0.23,14.15c1.9,3.98,5.96,6.19,9.85,7.77c-36.65,14.48,0,0-37.91,14.98L770.18,554.8z"/>
	<path class="st2" d="M692.7,442.75c17.94-0.55,35.97,5.41,49.93,16.69c6.52,5.09,12.02,11.33,16.55,18.21
		c4.11,6.47,7.49,13.45,9.38,20.89c1.76,5.59,2.59,11.46,2.91,17.34c0.09,5.69,0.05,11.46-1.06,17.06
		c-1.29,7.03-3.37,13.96-6.75,20.34c-2.96,6.33-6.93,12.16-11.6,17.38c-3,2.96-5.78,6.1-9.11,8.64c-2.68,2.13-5.45,4.11-8.37,5.82
		c-3.47,1.94-6.89,4.02-10.68,5.32c-7.63,3.05-15.67,5.09-23.85,5.59c-6.93,0.23-13.96,0.14-20.76-1.43
		c-3.88-0.88-7.72-1.85-11.46-3.28c-6.19-2.5-12.25-5.41-17.66-9.38c-11.93-8.55-21.5-20.57-26.63-34.39
		c-3-7.4-4.72-15.26-5.27-23.21c-0.65-6.43,0.18-12.9,1.25-19.23c1.06-5.69,2.77-11.28,5.09-16.64
		c7.17-16.41,20.25-30.23,36.52-37.81C670.88,445.75,681.74,443.16,692.7,442.75 M674.67,464.61c-4.07,1.66-7.86,4.02-11.51,6.47
		c-0.83,0.46-1.16,1.34-1.48,2.22c1.34,0.09,2.68,0.05,4.02-0.28c7.07-1.39,14.15-2.54,21.31-3.19c7.03-0.28,14.19-0.32,21.08,1.53
		c3.47,1.06,7.03,1.99,10.26,3.79c3.56,1.99,7.03,4.16,9.85,7.07c2.22,2.13,4.3,4.39,6.47,6.56c0.97,1.11,2.64,1.06,3.93,0.69
		c1.53-0.65,2.36-2.27,2.73-3.79c0.23-2.08-1.25-3.88-2.36-5.5c-4.02-5.73-9.48-10.4-15.67-13.68c-4.95-2.54-10.17-4.62-15.72-5.5
		C696.54,459.2,684.98,460.22,674.67,464.61z"/>
</g>
<path class="st3" d="M432.77,554.8c4.02,1.66,8.6,3.33,12.94,1.9c3.14-0.97,5.32-3.74,6.56-6.7c1.9-4.44,2.63-9.25,3.56-13.96
	c0.69-3.14,0.65-6.43,1.11-9.57c0.18-4.16,0.18-8.32,0-12.44c-0.32-2.22-0.46-4.48-0.65-6.7c-2.13-15.02-7.58-29.59-15.99-42.21
	c-2.68-3.84-5.69-7.44-8.64-11.09c-3.61-3.79-7.21-7.63-11.42-10.77c-5.36-4.62-11.42-8.37-17.61-11.74
	c-4.81-2.77-10.12-4.62-15.35-6.47c-10.86-3.61-22.33-5.32-33.75-4.99c-16.32,0.65-32.5,5.09-46.74,13.04
	c-7.21,3.88-14.01,8.55-20.02,14.1c-4.9,4.44-9.11,9.62-13.22,14.79c-4.16,6.01-7.95,12.3-10.72,19.05
	c-3.84,9.29-6.43,19.18-7.03,29.26c-1.16,18.12,1.02,36.94,9.25,53.3c3.65,7.72,8.41,14.84,13.91,21.31
	c2.5,3.14,5.36,5.96,8.37,8.64c5.45,4.39,10.68,9.11,16.78,12.62c4.16,2.45,8.23,5.13,12.67,7.07c3.33,1.39,6.52,3,9.94,4.16
	c7.67,2.54,15.62,4.3,23.62,5.27c2.87,0.46,5.78,0.28,8.64,0.55c2.82,0.28,5.59-0.18,8.41-0.18c2.87,0,5.73-0.51,8.55-0.97
	c4.35-0.74,8.64-1.71,12.81-3.1c5.22-1.85,10.45-3.79,15.12-6.8c5.59-3.61,10.77-7.9,15.21-12.85c2.68-2.54,4.72-5.64,6.89-8.6
	c2.17-3,3.98-6.29,5.69-9.57c0.51,3.74,1.57,7.35,2.45,11.05c1.48,5.73,2.77,11.51,4.16,17.29c-1.25,1.25-2.64,2.36-3.98,3.51
	c-1.9,1.85-3.84,3.61-6.01,5.09c-3.65,2.5-7.12,5.32-10.96,7.54c-7.12,4.02-14.52,7.54-22.33,10.12c-4.21,1.48-8.6,2.36-12.94,3.47
	c-5.64,1.16-11.33,1.99-17.06,2.4c-5.41,0.18-10.82,0.14-16.23,0.05c-8.92-0.6-17.71-2.22-26.3-4.62
	c-8.18-2.17-15.95-5.64-23.44-9.52c-6.15-3.24-11.7-7.44-17.29-11.56c-11.19-9.15-20.8-20.2-28.38-32.5
	c-10.63-17.57-17.2-37.68-18.35-58.25c-0.14-7.81-0.18-15.67,1.16-23.39c2.13-14.84,7.4-29.17,14.98-42.11
	c4.16-7.54,9.57-14.38,15.35-20.76c3.19-3.14,6.24-6.43,9.57-9.38c3.98-3.28,8.14-6.38,12.25-9.48c3.88-2.82,8.14-5.04,12.3-7.49
	c15.02-7.86,31.62-12.85,48.54-13.87c19.42-1.34,39.15,2.36,56.63,11c3.84,2.08,7.63,4.25,11.46,6.33
	c6.93,4.21,13.5,9.01,19.55,14.38c4.58,4.58,9.38,8.88,13.36,13.96c2.27,2.4,4.21,5.04,6.1,7.72c1.9,3.24,4.25,6.1,5.96,9.48
	c8.97,15.86,14.1,33.93,14.65,52.14c-0.05,5.55,0.28,11.09-0.42,16.6c-0.65,8.6-2.36,17.1-4.81,25.38
	c-1.2,4.58-2.31,9.66-0.23,14.15c1.9,3.98,5.96,6.19,9.85,7.77c-36.65,14.48,0,0-37.91,14.98L432.77,554.8z"/>
<path class="st3" d="M355.29,442.75c17.94-0.55,35.97,5.41,49.93,16.69c6.52,5.09,12.02,11.33,16.55,18.21
	c4.11,6.47,7.49,13.45,9.38,20.89c1.76,5.59,2.59,11.46,2.91,17.34c0.09,5.69,0.05,11.46-1.06,17.06
	c-1.29,7.03-3.37,13.96-6.75,20.34c-2.96,6.33-6.93,12.16-11.6,17.38c-3,2.96-5.78,6.1-9.11,8.64c-2.68,2.13-5.45,4.11-8.37,5.82
	c-3.47,1.94-6.89,4.02-10.68,5.32c-7.63,3.05-15.67,5.09-23.85,5.59c-6.93,0.23-13.96,0.14-20.76-1.43
	c-3.88-0.88-7.72-1.85-11.46-3.28c-6.19-2.5-12.25-5.41-17.66-9.38c-11.93-8.55-21.5-20.57-26.63-34.39
	c-3-7.4-4.72-15.26-5.27-23.21c-0.65-6.43,0.18-12.9,1.25-19.23c1.06-5.69,2.77-11.28,5.09-16.64
	c7.17-16.41,20.25-30.23,36.52-37.81C333.47,445.75,344.33,443.16,355.29,442.75 M337.26,464.61c-4.07,1.66-7.86,4.02-11.51,6.47
	c-0.83,0.46-1.16,1.34-1.48,2.22c1.34,0.09,2.68,0.05,4.02-0.28c7.07-1.39,14.15-2.54,21.31-3.19c7.03-0.28,14.19-0.32,21.08,1.53
	c3.47,1.06,7.03,1.99,10.26,3.79c3.56,1.99,7.03,4.16,9.85,7.07c2.22,2.13,4.3,4.39,6.47,6.56c0.97,1.11,2.64,1.06,3.93,0.69
	c1.53-0.65,2.36-2.27,2.73-3.79c0.23-2.08-1.25-3.88-2.36-5.5c-4.02-5.73-9.48-10.4-15.67-13.68c-4.95-2.54-10.17-4.62-15.72-5.5
	C359.13,459.2,347.57,460.22,337.26,464.61z"/>
</svg>
