<?xml version="1.0" encoding="utf-8"?>
<!-- Generator: Adobe Illustrator 25.2.1, SVG Export Plug-In . SVG Version: 6.00 Build 0)  -->
<svg version="1.1" id="Laag_1" xmlns="http://www.w3.org/2000/svg" xmlns:xlink="http://www.w3.org/1999/xlink" x="0px" y="0px"
	 viewBox="0 0 497 497.6" style="enable-background:new 0 0 497 497.6;" xml:space="preserve">
<style type="text/css">
	.st0{fill:#3D3884;stroke:#000000;stroke-miterlimit:10;}
	.st1{fill:#8FBB45;stroke:#000000;stroke-miterlimit:10;}
	.st2{fill:none;stroke:#000000;stroke-miterlimit:10;}
	.st3{fill:none;stroke:#1D1D1B;stroke-width:0.25;stroke-miterlimit:10;}
	.st4{fill:none;stroke:#000000;stroke-width:0.25;stroke-miterlimit:10;}
	.st5{fill:#FFFFFF;stroke:#000000;stroke-miterlimit:10;}
	.st6{fill:#FFFFFF;stroke:#1D1D1B;stroke-miterlimit:10;}
	.st7{fill:none;stroke:#1D1D1B;stroke-miterlimit:10;}
	.st8{fill:#0066FF;stroke:#000000;stroke-width:0.5;stroke-linejoin:bevel;stroke-miterlimit:22.9256;}
	.st9{fill:#FFFFFF;}
	.st10{font-family:'ArialMT';}
	.st11{font-size:18px;}
	.st12{fill:#FF0000;stroke:#1D1D1B;stroke-miterlimit:10;}
</style>
<path class="st0" d="M496.5,130.1C468.3,72.7,420.9,27,362.5,0.8L137.7,0.5l0,0C76.6,28,28,77.7,0.5,138.8v224.6
	C26.7,421.9,72.4,469,129.9,497.1h241c54.7-26.8,98.8-70.9,125.6-125.6V130.1z"/>
<path class="st1" d="M159.2,367.2l-0.1,43.4c0,1.9,1.5,3.7,3.4,3.7H334c1.9,0,3.6-1.7,3.6-3.6v-43.4c0-1.9-1.8-3.6-3.7-3.6h0.1
	H162.7h-0.1C160.7,363.8,159.2,365.3,159.2,367.2z"/>
<g>
	<path class="st1" d="M140.4,334.8c0-10.1-8.2-18.3-18.3-18.3s-18.3,8.2-18.3,18.3c0,10.1,8.2,18.3,18.3,18.3
		S140.4,344.9,140.4,334.8"/>
	<path class="st1" d="M137.7,334.8c0-8.6-7-15.6-15.6-15.6s-15.6,7-15.6,15.6s7,15.6,15.6,15.6S137.7,343.4,137.7,334.8"/>
	<path class="st1" d="M112.3,332c-1.6,0-2.8,1.3-2.8,2.8c0,1.6,1.3,2.8,2.8,2.8"/>
	<path class="st1" d="M132.1,337.6c1.6,0,2.8-1.3,2.8-2.8c0-1.6-1.3-2.8-2.8-2.8"/>
	<line class="st2" x1="112.3" y1="332" x2="132.1" y2="332"/>
	<line class="st2" x1="112.3" y1="337.6" x2="132.1" y2="337.6"/>
</g>
<path class="st2" d="M426.6,129.3l-57.7-57.7l-12.5,12.2l57.7,57.7L426.6,129.3l-10.4-10.7l-3.9-3.6l-4.8-4.8"/>
<path class="st3" d="M378.4,497.1"/>
<path class="st3" d="M370.4,1.1"/>
<path class="st4" d="M496.5,379"/>
<path class="st3" d="M0.5,370.9"/>
<path class="st2" d="M434.6,292.1"/>
<path class="st2" d="M331.1,414.4"/>
<path class="st2" d="M336.4,412"/>
<path class="st2" d="M336.4,412"/>
<path class="st2" d="M337.6,410.8"/>
<line class="st2" x1="323" y1="121.9" x2="174" y2="121.9"/>
<line class="st2" x1="323" y1="122.8" x2="251.3" y2="122.8"/>
<line class="st2" x1="245.7" y1="122.8" x2="174" y2="122.8"/>
<line class="st2" x1="174" y1="131.7" x2="245.7" y2="131.7"/>
<line class="st2" x1="251.3" y1="131.7" x2="323" y2="131.7"/>
<line class="st2" x1="174.6" y1="158.5" x2="323" y2="158.5"/>
<path class="st2" d="M335.8,410.8"/>
<path class="st2" d="M335.8,367.4"/>
<line class="st2" x1="315.9" y1="131.7" x2="315.9" y2="122.8"/>
<path class="st2" d="M161.8,414.1"/>
<path class="st2" d="M163,412.9"/>
<path class="st2" d="M443,206.4"/>
<path class="st2" d="M63,206.4"/>
<path class="st2" d="M63,206.7"/>
<line class="st2" x1="258.2" y1="122.8" x2="258.2" y2="131.7"/>
<polyline class="st2" points="251.3,122.8 251.3,150.7 323,150.7 "/>
<polyline class="st2" points="245.7,122.8 245.7,150.7 174,150.7 "/>
<line class="st2" x1="238.5" y1="131.7" x2="238.5" y2="122.8"/>
<line class="st2" x1="434" y1="291.8" x2="434.6" y2="291.8"/>
<path class="st2" d="M434,292.1"/>
<polyline class="st2" points="412.3,383.7 415.9,379.9 379.3,416.8 382.9,412.9 "/>
<path class="st2" d="M414.1,356.9l-57.7,57.7l12.2,12.5l57.7-57.7L414.1,356.9l-10.7,10.4l-3.6,3.9L395,376"/>
<path class="st2" d="M334.1,412.9"/>
<path class="st2" d="M335,414.1"/>
<line class="st2" x1="181.1" y1="122.8" x2="181.1" y2="131.7"/>
<polyline class="st2" points="334.1,410.8 334.1,367.4 162.7,367.4 162.7,367.5 162.7,410.8 334.1,410.8 "/>
<path class="st2" d="M162.7,412.6"/>
<path class="st2" d="M334.1,412.6"/>
<path class="st2" d="M165.9,414.4"/>
<path class="st2" d="M159.4,410.8"/>
<path class="st2" d="M82.9,356.9l57.7,57.7l-12.5,12.5c-57.7-57.7,0,0-57.7-57.7L82.9,356.9l43.4,43.4l7.4,7.4"/>
<path class="st2" d="M312.2,176c6,0,10.9-4.7,10.9-10.4"/>
<path class="st2" d="M315,390.1c0-7.3-5.9-13.2-13.2-13.2c-7.3,0-13.2,5.9-13.2,13.2c0,7.3,5.9,13.3,13.2,13.3S315,397.4,315,390.1"
	/>
<path class="st2" d="M279.3,390.1c0-7.3-5.9-13.2-13.2-13.2c-7.3,0-13.2,5.9-13.2,13.2c0,7.3,5.9,13.3,13.2,13.3
	C273.4,403.4,279.3,397.4,279.3,390.1"/>
<path class="st2" d="M333.9,365.6"/>
<path class="st2" d="M335.5,367.2"/>
<path class="st2" d="M335.6,410.7"/>
<path class="st2" d="M333.9,412.3"/>
<path class="st2" d="M312.3,176h-128c-5.7,0-10.4-4.7-10.4-10.4V115H323v50.6"/>
<g>
	<path class="st5" d="M445.5,272.4c2.5-21,1.7-42.4-2.5-63.1c-1.4-6.7,2.9-13.2,9.6-14.6c6.7-1.4,13.2,2.9,14.6,9.6
		c4.8,23.6,5.4,48,2.4,72c6.4,6.4,8.3,16.2,4.1,24.3c-4.2,8.1-13.1,12.6-22,11.2c-9-1.5-16-8.6-17.4-17.6
		C432.9,285.2,437.3,276.5,445.5,272.4z"/>
</g>
<g>
	<path class="st6" d="M378.2,249.2c0-18.3-14.7-33.2-32.9-33.2c-18.2,0-32.9,14.9-32.9,33.2s14.7,33.2,32.9,33.2
		C363.5,282.4,378.2,267.5,378.2,249.2"/>
	<path class="st7" d="M359.5,249.2c0-7.8-6.3-14.1-14.1-14.1c-7.8,0-14.1,6.3-14.1,14.1c0,7.8,6.3,14.1,14.1,14.1
		C353.2,263.3,359.5,257,359.5,249.2"/>
	<path class="st7" d="M357.7,249.2c0-6.8-5.5-12.3-12.3-12.3s-12.3,5.5-12.3,12.3c0,6.8,5.5,12.3,12.3,12.3
		C352.1,261.5,357.7,256,357.7,249.2"/>
</g>
<path class="st8" d="M259.1,334.8c0-6-4.9-10.9-10.9-10.9s-10.9,4.9-10.9,10.9s4.9,10.9,10.9,10.9
	C254.2,345.6,259.1,340.8,259.1,334.8"/>
<path class="st7" d="M257.6,334.8"/>
<path class="st7" d="M248.2,344.2"/>
<path class="st7" d="M238.8,334.8"/>
<path class="st7" d="M248.2,325.4"/>
<path class="st7" d="M257.6,334.8"/>
<path class="st7" d="M256.7,334.8"/>
<path class="st7" d="M239.7,334.8"/>
<path class="st7" d="M248.2,326.3"/>
<path class="st7" d="M256.7,334.8"/>
<path class="st7" d="M255.2,334.8c0-3.9-3.1-7-7-7s-7,3.1-7,7s3.1,7,7,7S255.2,338.6,255.2,334.8"/>
<path class="st2" d="M207.9,390.1c0-7.3-5.9-13.2-13.2-13.2s-13.2,5.9-13.2,13.2s5.9,13.3,13.2,13.3S207.9,397.4,207.9,390.1"/>
<path class="st2" d="M243.6,390.1c0-7.3-5.9-13.2-13.2-13.2s-13.2,5.9-13.2,13.2c0,7.3,5.9,13.3,13.2,13.3
	C237.7,403.4,243.6,397.4,243.6,390.1"/>
<path class="st2" d="M162.5,412.3"/>
<g>
	<path class="st5" d="M51.3,225.5c-2.5,21-1.7,42.4,2.5,63.1c1.4,6.7-2.9,13.2-9.6,14.6s-13.2-2.9-14.6-9.6c-4.8-23.6-5.4-48-2.4-72
		c-6.4-6.4-8.3-16.2-4.1-24.3s13.1-12.6,22-11.2c9,1.5,16,8.6,17.4,17.6C63.8,212.7,59.4,221.4,51.3,225.5z"/>
</g>
<g>
	<path class="st5" d="M224.5,445.9c21,2.5,42.4,1.7,63.1-2.5c6.7-1.4,13.2,2.9,14.6,9.6s-2.9,13.2-9.6,14.6c-23.6,4.8-48,5.4-72,2.4
		c-6.4,6.4-16.2,8.3-24.3,4.1c-8.1-4.2-12.6-13.1-11.2-22c1.5-9,8.6-16,17.6-17.4C211.7,433.4,220.4,437.8,224.5,445.9z"/>
</g>
<g>
	<path class="st6" d="M271.8,52.1c-21-2.5-42.4-1.7-63.1,2.5c-6.7,1.4-13.2-2.9-14.6-9.6c-1.4-6.7,2.9-13.2,9.6-14.6
		c23.6-4.8,48-5.4,72-2.4c6.4-6.4,16.2-8.3,24.3-4.1c8.1,4.2,12.6,13.1,11.2,22c-1.5,9-8.6,16-17.6,17.4
		C284.6,64.6,275.9,60.2,271.8,52.1z"/>
</g>
<polyline class="st4" points="126.4,98.2 129.9,94.4 93.3,131.2 96.9,127.4 "/>
<path class="st2" d="M128.2,71.4l-57.7,57.7l12.2,12.5l57.7-57.7L128.2,71.4l-10.7,10.4l-3.6,3.9l-4.8,4.8"/>
<g>
	<path class="st1" d="M195.27,334.8c0-10.1-8.2-18.3-18.3-18.3c-10.1,0-18.3,8.2-18.3,18.3s8.2,18.3,18.3,18.3
		C187.07,353.1,195.27,344.9,195.27,334.8"/>
	<path class="st1" d="M192.57,334.8c0-8.6-7-15.6-15.6-15.6s-15.6,7-15.6,15.6s7,15.6,15.6,15.6S192.57,343.4,192.57,334.8"/>
	<path class="st1" d="M167.17,332c-1.6,0-2.8,1.3-2.8,2.8c0,1.6,1.3,2.8,2.8,2.8"/>
	<path class="st1" d="M186.87,337.6c1.6,0,2.8-1.3,2.8-2.8c0-1.6-1.3-2.8-2.8-2.8"/>
	<line class="st2" x1="167.17" y1="332" x2="186.87" y2="332"/>
	<line class="st2" x1="167.17" y1="337.6" x2="186.87" y2="337.6"/>
</g>
<g>
	<g id="_x23_ec0444ff">
		<path class="st9" d="M331.7,190.3h0.5c1.2,0.1,2.5,0.6,3.3,1.6c0.7,0.8,1.2,2,1.2,3.1c0,0.9-0.3,1.8-0.7,2.5
			c-0.7,0.1-1.3,0.2-2,0.2c-1.1,0.1-2.3,0.1-3.4,0c1.6-1.6,3.1-3.2,4.7-4.8c0-0.3-0.1-0.6-0.4-0.9c-0.3-0.3-0.6-0.4-1-0.5
			c-0.6-0.1-1.2-0.1-1.8-0.1c-1.1,0-2.3,0.1-3.4,0.2C329.5,190.9,330.6,190.3,331.7,190.3z"/>
		<path class="st9" d="M328.3,192.2c1.7-0.2,3.5-0.4,5.3-0.2c-1.6,1.6-3.1,3.2-4.7,4.8c0,0.3,0.1,0.6,0.4,0.9
			c0.3,0.3,0.8,0.4,1.2,0.5c1.7,0.2,3.5,0,5.2-0.2c-0.5,0.6-1.1,1-1.8,1.3c-1,0.4-2.1,0.5-3.1,0.2c-0.9-0.3-1.7-0.8-2.3-1.5
			c-0.6-0.8-1-1.7-1.1-2.7v-0.5C327.5,193.8,327.7,193,328.3,192.2z"/>
	</g>
	<g id="_x23_000000ff">
		<path class="st9" d="M345.3,190.7c0.4-0.1,0.8,0.1,0.9,0.5c0.2,0.3,0.1,0.7-0.2,1c-0.3,0.3-0.8,0.3-1.1,0.1s-0.4-0.7-0.3-1
			C344.7,190.9,345,190.7,345.3,190.7z"/>
		<path class="st9" d="M352.8,191c0.5,0,0.9,0,1.4,0c0,0.8,0,1.5,0,2.3c0.3-0.3,0.6-0.5,1-0.6c0.5-0.1,1.1,0,1.5,0.2
			c0.5,0.3,0.9,0.8,1.1,1.3c0.1,0.4,0.2,0.9,0.1,1.3c0,0.5-0.2,1-0.5,1.4s-0.7,0.7-1.1,0.8c-0.4,0.2-0.9,0.2-1.4,0
			c-0.3-0.1-0.6-0.3-0.8-0.6c0,0.2,0,0.4,0,0.7c-0.5,0-0.9,0-1.4,0C352.8,195.5,352.8,193.3,352.8,191 M355.3,193.8
			c-0.3,0-0.6,0.2-0.8,0.4c-0.3,0.3-0.3,0.8-0.3,1.2c0.1,0.4,0.2,0.7,0.5,0.9c0.4,0.3,1,0.3,1.4,0s0.5-0.8,0.5-1.2s-0.1-0.8-0.4-1
			C356,193.9,355.6,193.8,355.3,193.8z"/>
		<path class="st9" d="M348,192.9c0.4-0.2,0.9-0.3,1.3-0.2c0.5,0.1,1,0.4,1.4,0.9c0-0.3,0-0.5,0-0.8c0.5,0,1,0,1.4,0
			c0,1.4,0,2.8,0,4.2c0,0.6-0.1,1.2-0.3,1.8c-0.2,0.5-0.5,0.9-0.9,1.2s-1,0.5-1.6,0.5H349c-0.9,0-1.8-0.4-2.4-1.1
			c0.3-0.3,0.6-0.6,0.9-0.9c0.4,0.4,0.9,0.7,1.4,0.8s1.1-0.1,1.4-0.6c0.3-0.4,0.3-0.9,0.3-1.4c-0.2,0.2-0.5,0.5-0.8,0.6
			c-0.4,0.2-0.9,0.2-1.3,0.1c-0.5-0.1-1-0.4-1.3-0.8c-0.4-0.5-0.6-1.1-0.6-1.7c0-0.6,0.1-1.1,0.4-1.6
			C347.3,193.3,347.6,193,348,192.9 M349.1,193.8c-0.3,0.1-0.5,0.2-0.7,0.5s-0.3,0.8-0.3,1.2s0.2,0.7,0.5,1c0.3,0.2,0.8,0.3,1.1,0.1
			c0.3-0.1,0.5-0.3,0.6-0.5c0.2-0.4,0.3-0.9,0.1-1.3c-0.1-0.3-0.3-0.6-0.5-0.8S349.5,193.8,349.1,193.8z"/>
		<path class="st9" d="M359.5,193.2c0.4-0.3,0.9-0.5,1.4-0.5s1,0,1.5,0.2s1,0.7,1.2,1.2c0.1,0.3,0.2,0.7,0.2,1
			c-1.2,0.4-2.4,0.7-3.5,1.1c0.2,0.2,0.4,0.4,0.6,0.4c0.6,0.1,1.2-0.1,1.6-0.6c0.3,0.3,0.5,0.6,0.8,0.9c-0.5,0.5-1.2,0.8-1.9,0.9
			c-0.8,0.1-1.6-0.2-2.2-0.7c-0.4-0.4-0.7-0.9-0.8-1.4c-0.1-0.5,0-1,0.1-1.5C358.8,193.9,359.1,193.5,359.5,193.2 M360.1,194.4
			c-0.2,0.2-0.3,0.6-0.3,0.9c0.8-0.3,1.7-0.5,2.5-0.8c-0.2-0.4-0.6-0.6-1-0.6C360.8,193.8,360.3,194,360.1,194.4z"/>
		<path class="st9" d="M366.3,192.7c0.5-0.1,1,0,1.5,0.1c0.5,0.2,0.9,0.5,1.2,0.9s0.4,0.9,0.4,1.4c-1.2,0.4-2.4,0.7-3.5,1.1
			c0.2,0.2,0.4,0.4,0.7,0.4c0.6,0.1,1.2-0.1,1.6-0.6c0.3,0.3,0.6,0.6,0.8,0.9c-0.4,0.4-0.8,0.6-1.3,0.8c-0.6,0.2-1.3,0.2-1.9-0.1
			c-0.6-0.2-1-0.6-1.3-1.1s-0.4-1.1-0.3-1.7c0.1-0.5,0.3-1.1,0.7-1.4C365.3,193,365.8,192.7,366.3,192.7 M366,194.3
			c-0.3,0.3-0.4,0.6-0.4,1c0.8-0.3,1.7-0.5,2.5-0.8c-0.2-0.2-0.4-0.4-0.7-0.5C366.8,193.7,366.3,193.9,366,194.3z"/>
		<path class="st9" d="M339.8,192.7c1.4,0,2.7,0,4.1,0c0,0.4,0,0.7,0,1.1c-0.8,0.9-1.6,1.8-2.4,2.8c0.9,0,1.7,0,2.6,0
			c0,0.4,0,0.8,0,1.2c-1.5,0-2.9,0-4.4,0c0-0.4,0-0.8,0-1.2c0.8-0.9,1.6-1.8,2.4-2.7c-0.7,0-1.5,0-2.2,0
			C339.8,193.5,339.8,193.1,339.8,192.7z"/>
		<path class="st9" d="M344.6,197.8c0-1.7,0-3.4,0-5.1c0.5,0,1,0,1.4,0c0,1.7,0,3.4,0,5.1C345.6,197.8,345.1,197.8,344.6,197.8z"/>
	</g>
</g>
<g>
	<g id="_x23_3d3884ff">
		<path class="st9" d="M273.8,60.2c0,0,0.1,0,0.2,0c0.6,1.2,1.1,2.5,1.7,3.7c0.1,0.1,0.2,0.5-0.1,0.4c-0.6-1.2-1.1-2.5-1.7-3.7
			C273.8,60.5,273.6,60.3,273.8,60.2z"/>
		<path class="st9" d="M274.5,60.4c0.1-0.1,0.3,0.1,0.3,0.2c0.4,0.9,0.8,1.8,1.2,2.6c0.1,0.2,0.2,0.5-0.1,0.4
			c-0.3-0.6-0.6-1.2-0.8-1.8c-0.2-0.4-0.4-0.9-0.5-1.3L274.5,60.4z"/>
		<path class="st9" d="M273.1,60.8c-0.1-0.2,0.1-0.3,0.2-0.4c0.4,0.8,0.8,1.7,1.2,2.5c0.2,0.5,0.5,1,0.7,1.5c-0.1,0-0.2,0.1-0.2,0.2
			c-0.2-0.2-0.3-0.5-0.4-0.8C274,62.8,273.6,61.8,273.1,60.8z"/>
		<path class="st9" d="M272.4,61c-0.1-0.2,0.1-0.2,0.1-0.3c0.6,1.3,1.2,2.6,1.8,3.9c0.1,0.2,0,0.3-0.2,0.3
			C273.6,63.7,273,62.4,272.4,61z"/>
		<path class="st9" d="M275.5,61.1c0.3,0.1,0.6,0.3,0.7,0.6s0,0.6,0,0.9C275.9,62.1,275.7,61.6,275.5,61.1z"/>
		<path class="st9" d="M301.9,62c0.6-0.1,1.3-0.1,1.8,0.2c0.9,0.4,1.6,1.4,1.6,2.4c0.1,1.2-0.8,2.4-2,2.7c-0.5,0.1-1,0.1-1.5,0
			c-1.1-0.3-2-1.4-2-2.6C299.7,63.5,300.7,62.3,301.9,62 M302,62.5c-1.1,0.2-1.8,1.3-1.8,2.4c0,0.5,0.2,0.9,0.5,1.3
			c0.6,0.7,1.7,1.1,2.5,0.8c0.5-0.1,0.9-0.5,1.2-0.9c0.5-0.6,0.5-1.5,0.3-2.2C304.3,62.8,303.1,62.1,302,62.5z"/>
		<path class="st9" d="M244,62.7c1.7,0,3.3,0,5,0c2.1,0,4.2-0.1,6.3,0.3c1.8,0.3,3.5,1,4.9,2.1c1.9,1.5,3,3.9,3.4,6.2
			c0.4,2,0.4,4.1,0.1,6.1c-0.2,1.5-0.7,3-1.5,4.4c-0.8,1.3-1.9,2.4-3.2,3.2c-1.2,0.7-2.6,1.1-4,1.4c-2.2,0.4-4.4,0.3-6.6,0.3
			c-1.3,0-2.6,0-4,0c-0.2,0-0.5,0-0.6-0.3s-0.1-0.6-0.1-0.9c0.1-5.4,0-10.8,0-16.2c0-2,0-4,0-6C243.6,63.1,243.7,62.7,244,62.7
			 M248.4,66.8c-0.2,0.1-0.3,0.3-0.3,0.5c0,4.9,0,9.9,0,14.8c0,0.2,0.1,0.4,0.3,0.4c0.8,0,1.6,0,2.4,0c1.8,0,3.8-0.1,5.4-1
			c1.5-0.8,2.4-2.4,2.7-4c0.3-1.6,0.4-3.2,0.2-4.7c-0.1-0.8-0.3-1.6-0.6-2.4c-0.5-1.2-1.5-2.3-2.7-2.8c-1.8-0.8-3.8-0.8-5.8-0.7
			C249.5,66.8,249,66.8,248.4,66.8z"/>
		<path class="st9" d="M301.2,63.1c0.6,0,1.2,0,1.8,0.1c0.4,0.1,0.7,0.6,0.6,1c0,0.3-0.3,0.4-0.5,0.6c0.5,0.3,0.6,1,0.9,1.5
			c-0.3,0-0.6,0-0.8,0c-0.2-0.3-0.3-0.7-0.5-1c-0.1-0.2-0.4-0.2-0.6-0.2c0,0.4,0,0.8,0,1.2c-0.3,0-0.5,0-0.8,0
			C301.2,65.2,301.2,64.1,301.2,63.1 M302,63.7c0,0.3,0,0.5,0,0.8c0.2,0,0.4,0,0.7-0.1c0.2-0.1,0.2-0.5,0-0.7
			C302.5,63.6,302.3,63.7,302,63.7z"/>
		<path class="st9" d="M279,70.2c1.2-1,2.8-1.4,4.4-1.2c0.8,0.1,1.6,0.2,2.3,0.6c0.6,0.3,1.1,0.8,1.5,1.3c0.1,0.2,0.3,0.3,0.5,0.1
			c0.8-0.9,1.8-1.6,3-1.9c1-0.2,2-0.2,2.9,0c1.2,0.2,2.3,0.8,3,1.8c0.9,1.4,1.1,3.1,1.2,4.7c0,3.2,0,6.4,0,9.5c0,0.4,0,0.8,0,1.3
			c0,0.3-0.4,0.3-0.6,0.3c-1,0-1.9-0.1-2.9,0c-0.2,0-0.5,0-0.7-0.1s-0.2-0.4-0.2-0.6c0-3.5,0-7.1,0-10.6c0-0.8,0-1.8-0.7-2.4
			c-0.6-0.5-1.5-0.3-2.1,0c-0.9,0.4-1.6,1.1-2.2,1.9c0,3.7,0,7.5,0,11.2c0,0.2,0,0.4-0.2,0.6s-0.5,0.1-0.8,0.1c-1-0.1-1.9,0-2.9,0
			c-0.3,0-0.5-0.3-0.4-0.6c0-3.5,0-7.1,0-10.6c0-0.7-0.1-1.5-0.5-2.2c-0.3-0.5-1-0.7-1.6-0.6c-1.1,0.2-2,0.9-2.7,1.7
			c-0.1,0.1-0.3,0.3-0.3,0.5c0,3.7,0,7.4,0,11.1c0,0.3,0,0.7-0.4,0.7c-1,0-2.1,0-3.1,0c-0.2,0-0.4,0-0.6-0.1s-0.2-0.4-0.2-0.5
			c0-5.4,0-10.8,0-16.2c0-0.2,0-0.6,0.3-0.6c1,0,2,0,3,0c0.3,0,0.7-0.1,0.9,0.1C279.1,69.6,279,69.9,279,70.2z"/>
		<path class="st9" d="M267.1,69.3c0.5-0.1,1,0,1.5,0c0.7,0,1.5,0,2.2,0c0.3,0,0.4,0.3,0.3,0.5c0,3.6,0,7.2,0,10.8
			c0,1.8,0,3.5,0,5.3c0,0.2,0,0.4-0.1,0.6c-0.2,0.1-0.5,0.1-0.7,0.1c-1.1-0.1-2.1,0-3.2,0c-0.3,0-0.3-0.3-0.3-0.5
			c0-5.4,0-10.9,0-16.3C266.9,69.7,266.9,69.4,267.1,69.3z"/>
		<path class="st9" d="M249.3,88.4c4.4,0,8.8,0,13.2,0c5.8,0,11.5,0,17.3,0.2c2,0.1,4.1,0.1,6.1,0.2c4,0.1,8,0.3,12,0.4
			c1.2,0,2.3,0,3.5,0.1c-0.3,0.1-0.6,0.2-0.9,0.2c-5.3,0.2-10.6,0.4-15.9,0.5c-5.2,0-10.5,0-15.7,0c-7.2,0-14.5,0-21.7,0
			c-2.3,0-4.6,0-6.9,0c-1.6,0-3.2,0-4.7-0.1c0.1-0.3,0.2-0.6,0.2-1c0-0.1-0.1-0.3,0-0.4C240.2,88.4,244.8,88.4,249.3,88.4z"/>
		<path class="st9" d="M204.3,89c7.2-0.2,14.5-0.4,21.7-0.5c0.2,0,0.4,0,0.3,0.2c-0.1,0.3,0.1,0.7,0.1,1c-0.4,0.1-0.7,0-1.1,0
			c-2.4,0-4.9-0.1-7.3-0.2c-4-0.1-8.1-0.2-12.1-0.3c-1.1,0-2.3,0-3.4-0.1C203,88.9,203.7,89,204.3,89z"/>
	</g>
	<g id="_x23_8fbb45ff">
		<path class="st9" d="M264.8,64.5c0.1-2.2,2.2-3.9,4.3-3.9c1.5,0,2.9,0.9,3.6,2.2c0.5,0.9,0.6,2.1,0.4,3.1c0,0.2-0.1,0.4-0.1,0.6
			c0.1,0.1,0.2,0.2,0.3,0.3c-0.5,0.3-0.9,0.6-1.3,1c-1,1.1-2.7,1.5-4.1,1C266,68.3,264.7,66.4,264.8,64.5 M266.5,62.5
			c-1.2,1.2-1.2,3.3-0.2,4.5c0.9,1.1,2.4,1.6,3.7,1.3c0.7-0.2,1.2-0.7,1.6-1.3c0.2-0.3,0.2-0.6,0.1-1c0.2,0,0.4,0.1,0.5,0
			s0.2-0.3,0.2-0.5c0.2-1.1-0.2-2.3-0.9-3.1c-0.5-0.5-1.1-0.8-1.8-1C268.5,61.2,267.3,61.6,266.5,62.5z"/>
		<path class="st9" d="M268.4,62.2c0.6-0.1,1.4-0.1,1.9,0.3c0.9,0.5,1.5,1.6,1.4,2.7c-0.1,1-0.9,2-2,2.2c-0.8,0.2-1.7,0-2.3-0.5
			c-0.8-0.6-1.3-1.8-1-2.8C266.7,63.2,267.5,62.5,268.4,62.2 M267.9,63.2c0.5,0,1.1-0.2,1.6-0.1c0.4,0.1,0.7,0.4,1,0.7
			c0.1-0.1,0.2-0.2,0.1-0.3C270,62.6,268.7,62.5,267.9,63.2z"/>
		<path class="st9" d="M192.7,62.7c3.9,0,7.8,0,11.6,0c0.2,0,0.5,0,0.7,0.2c0.1,0.2,0,0.5,0,0.8c-0.1,0.4,0,0.8-0.1,1.2
			c-0.1,0.3-0.5,0.4-0.8,0.4c-2.3,0-4.5,0-6.8,0.1c-0.2,0-0.3,0-0.5,0.1c-0.2,0.2-0.2,0.4-0.2,0.7c0,2.1,0,4.2,0,6.3
			c0,0.2,0,0.6,0.3,0.7c0.2,0.1,0.5,0.1,0.8,0.1c2,0,4,0.1,6,0.1c0.2,0,0.5,0,0.6,0.2c0.1,0.3-0.1,0.6,0,1c0,0.3,0.1,0.9-0.3,1
			c-0.5,0.2-1,0.1-1.5,0.1c-1.7,0-3.4,0.1-5.1,0.1c-0.3-0.1-0.7,0.2-0.6,0.6c0,2.4,0,4.9,0,7.3c0,0.2,0,0.4,0.1,0.5
			c0.2,0.2,0.4,0.2,0.6,0.2c2.6,0,5.3,0.1,7.9,0.1c0.1,0,0.3,0.1,0.3,0.2c0,0.5,0,1.1-0.1,1.6c0,0.3-0.3,0.4-0.5,0.5
			c-0.3,0.1-0.6,0.1-1,0.1c-3.6,0-7.1,0-10.7,0c-0.3,0-0.7,0.1-1-0.1c-0.1-0.1-0.1-0.3-0.1-0.5c0-7.6,0-15.1,0-22.7
			C192.3,63,192.4,62.7,192.7,62.7z"/>
		<path class="st9" d="M223.5,75c1.6-3.2,5.3-5.2,8.9-4.9c1.7,0.1,3.4,0.7,4.7,1.7c1.4,1,2.5,2.4,3.2,4.1c0.7,1.8,0.7,3.7,0.3,5.6
			c-0.6,2.4-2,4.8-4.3,6c-0.4,0.2-0.9,0.3-1.4,0.5c-0.4,0.2-0.1,0.7-0.1,1c0.1,0.5-0.2,1.1-0.7,1.1c-1,0.1-2,0-3,0
			c0.1,0.1,0.2,0.3,0.3,0.4c0.6,0.5,1.3,1,1.9,1.6c0.3,0.2,0.4,0.6,0.3,1c-1.9,0-3.8,0-5.7,0c-0.1-0.3,0-0.8,0.3-1
			c0.4-0.3,0.9-0.1,1.3-0.2c-0.1-0.1-0.1-0.1-0.2-0.2c-0.7-0.6-1.4-1.1-2-1.7c-0.3-0.2-0.4-0.7-0.2-1c0.1-0.3,0.5-0.5,0.8-0.5
			c1.5,0,3,0,4.4,0c0.3,0,0.6,0,0.7-0.3c0-0.5-0.3-1.1,0-1.7c0.2-0.4,0.7-0.4,1.1-0.5c1.3-0.2,2.6-0.7,3.5-1.7
			c0.8-1,1.2-2.2,1.5-3.4c0.3-1.7,0.2-3.5-0.6-5c-0.7-1.4-1.8-2.5-3.2-3.2c-1.6-0.8-3.5-1-5.3-0.7c-1.6,0.4-3.1,1.3-4.2,2.6
			c-1.9,2.4-2,6.1-0.2,8.6c0.3,0.5,0.8,0.8,1,1.4s-0.5,1.2-1.1,0.9c-0.4-0.2-0.7-0.6-1-1C222.4,81.9,222,78,223.5,75z"/>
		<path class="st9" d="M212.8,70.9c1.9-0.8,4-0.8,6-0.5c0.7,0.1,1.4,0.2,2.1,0.4c0.2,0,0.2,0.3,0.2,0.5c-0.2,0.8-0.4,1.7-0.6,2.5
			c0,0.3-0.3,0.2-0.5,0.1c-0.9-0.4-1.8-0.8-2.7-1c-0.7-0.1-1.5-0.1-2.2,0c-0.5,0.1-1,0.3-1.3,0.7c-0.3,0.4-0.4,0.8-0.5,1.2
			c-0.3,1.1-0.3,2.3-0.3,3.5c0,1.6-0.1,3.4,0.8,4.8c0.5,0.8,1.5,1.2,2.4,1.2c1.7,0,3.3-0.4,4.9-1c0.2,0.3,0.4,0.6,0.4,0.9
			c0,0.2-0.1,0.3-0.2,0.5c-1.1,0.9-2.4,1.6-3.8,2c-1.9,0.5-3.9,0.4-5.7-0.4c-1.2-0.6-2.1-1.6-2.6-2.9c-1.1-2.9-1.1-6.2,0.2-9.1
			C209.9,72.8,211.2,71.5,212.8,70.9z"/>
	</g>
</g>
<text transform="matrix(1 0 0 1 193.6006 108.9876)" class="st9 st10 st11">ECO-DIM.05</text>
<text transform="matrix(1 0 0 1 218.4876 314.4134)" class="st9 st10 st11">RESET</text>
<path class="st12" d="M261.1,277.83c0-6.8-5.5-12.3-12.3-12.3s-12.3,5.5-12.3,12.3c0,6.8,5.5,12.3,12.3,12.3
	S261.1,284.63,261.1,277.83"/>
<g>
	<path class="st2" d="M170.5,373.7l-0.1,30.7c0,1.3,1.3,2.6,3,2.6h149.5c1.7,0,3.1-1.2,3.1-2.5v-30.7c0-1.3-1.6-2.5-3.2-2.5h0.1
		H173.5l0,0C171.8,371.2,170.5,372.3,170.5,373.7z"/>
	<path class="st2" d="M172.5,375.4l-0.1,26.8c0,1.2,1.3,2.3,2.9,2.3h145.2c1.6,0,3-1,3-2.2v-26.8c0-1.2-1.6-2.2-3.1-2.2h0.1h-145
		l0,0C173.8,373.3,172.5,374.3,172.5,375.4z"/>
</g>
<text transform="matrix(1 0 0 1 230.4001 256.9583)" class="st9 st10 st11">LED</text>
<g>
	<path class="st6" d="M176.97,248.05c0-18.3-14.7-33.2-32.9-33.2s-32.9,14.9-32.9,33.2s14.7,33.2,32.9,33.2
		S176.97,266.35,176.97,248.05"/>
	<path class="st7" d="M158.27,248.05c0-7.8-6.3-14.1-14.1-14.1s-14.1,6.3-14.1,14.1c0,7.8,6.3,14.1,14.1,14.1
		C151.97,262.15,158.27,255.85,158.27,248.05"/>
	<path class="st7" d="M156.47,248.05c0-6.8-5.5-12.3-12.3-12.3s-12.3,5.5-12.3,12.3s5.5,12.3,12.3,12.3
		C150.87,260.35,156.47,254.85,156.47,248.05"/>
</g>
<g>
	<path class="st1" d="M340.17,336.55c0-10.1-8.2-18.3-18.3-18.3s-18.3,8.2-18.3,18.3c0,10.1,8.2,18.3,18.3,18.3
		S340.17,346.65,340.17,336.55"/>
	<path class="st1" d="M337.47,336.55c0-8.6-7-15.6-15.6-15.6s-15.6,7-15.6,15.6s7,15.6,15.6,15.6S337.47,345.15,337.47,336.55"/>
	<path class="st1" d="M312.07,333.75c-1.6,0-2.8,1.3-2.8,2.8c0,1.6,1.3,2.8,2.8,2.8"/>
	<path class="st1" d="M331.87,339.35c1.6,0,2.8-1.3,2.8-2.8c0-1.6-1.3-2.8-2.8-2.8"/>
	<line class="st2" x1="312.07" y1="333.75" x2="331.87" y2="333.75"/>
	<line class="st2" x1="312.07" y1="339.35" x2="331.87" y2="339.35"/>
</g>
<g>
	<path class="st1" d="M395.04,336.55c0-10.1-8.2-18.3-18.3-18.3c-10.1,0-18.3,8.2-18.3,18.3s8.2,18.3,18.3,18.3
		C386.84,354.85,395.04,346.65,395.04,336.55"/>
	<path class="st1" d="M392.34,336.55c0-8.6-7-15.6-15.6-15.6s-15.6,7-15.6,15.6s7,15.6,15.6,15.6S392.34,345.15,392.34,336.55"/>
	<path class="st1" d="M366.94,333.75c-1.6,0-2.8,1.3-2.8,2.8c0,1.6,1.3,2.8,2.8,2.8"/>
	<path class="st1" d="M386.64,339.35c1.6,0,2.8-1.3,2.8-2.8c0-1.6-1.3-2.8-2.8-2.8"/>
	<line class="st2" x1="366.94" y1="333.75" x2="386.64" y2="333.75"/>
	<line class="st2" x1="366.94" y1="339.35" x2="386.64" y2="339.35"/>
</g>
</svg>
